<svg width="55" height="55" viewBox="0 0 55 55" fill="none" xmlns="http://www.w3.org/2000/svg">
<circle cx="27.5" cy="27.5" r="26.5" stroke="#D9E8FF" stroke-width="2"/>
<path d="M27.374 31.048C27.266 31.048 27.176 31.012 27.104 30.94C27.032 30.868 26.996 30.778 26.996 30.67V29.95C27.02 29.314 27.182 28.768 27.482 28.312C27.782 27.856 28.22 27.334 28.796 26.746C29.264 26.266 29.606 25.87 29.822 25.558C30.038 25.246 30.146 24.904 30.146 24.532C30.146 23.98 29.912 23.542 29.444 23.218C28.988 22.894 28.454 22.732 27.842 22.732C26.414 22.732 25.574 23.452 25.322 24.892C25.262 25.156 25.106 25.288 24.854 25.288H23.99C23.87 25.288 23.774 25.252 23.702 25.18C23.63 25.108 23.594 25.012 23.594 24.892C23.618 24.232 23.804 23.626 24.152 23.074C24.512 22.51 25.016 22.06 25.664 21.724C26.312 21.388 27.056 21.22 27.896 21.22C28.784 21.22 29.528 21.376 30.128 21.688C30.74 21.988 31.19 22.384 31.478 22.876C31.766 23.356 31.91 23.872 31.91 24.424C31.91 25.036 31.772 25.564 31.496 26.008C31.22 26.452 30.806 26.968 30.254 27.556C29.798 28.036 29.456 28.444 29.228 28.78C29 29.104 28.868 29.47 28.832 29.878C28.808 30.214 28.796 30.466 28.796 30.634C28.736 30.91 28.586 31.048 28.346 31.048H27.374ZM27.23 34C27.11 34 27.008 33.964 26.924 33.892C26.852 33.808 26.816 33.706 26.816 33.586V32.488C26.816 32.368 26.852 32.272 26.924 32.2C27.008 32.116 27.11 32.074 27.23 32.074H28.4C28.52 32.074 28.622 32.116 28.706 32.2C28.79 32.272 28.832 32.368 28.832 32.488V33.586C28.832 33.706 28.79 33.808 28.706 33.892C28.622 33.964 28.52 34 28.4 34H27.23Z" fill="#0F0049"/>
</svg>
