<svg width="113" height="133" viewBox="0 0 113 133" fill="none" xmlns="http://www.w3.org/2000/svg">
<g filter="url(#filter0_d)">
<path d="M90 44.6111C90 63.7263 55.5 99 55.5 99C55.5 99 21 63.7263 21 44.6111C21 25.4959 36.4462 10 55.5 10C74.5538 10 90 25.4959 90 44.6111Z" fill="#FCFCFC"/>
</g>
<path d="M75.9228 37.3106C75.9228 33.5174 73.4879 29.4251 69.2418 26.0827C65.2111 22.9098 60.2609 21.0156 55.9997 21.0156C47.4847 21.0156 36.0767 29.0721 36.0767 37.311C36.0767 39.9086 39.76 44.8997 40.5427 45.9303C42.3418 48.5138 44.7633 53.0545 44.2752 54.6446C42.8977 59.1275 42.8936 62.5491 44.2626 64.8136C45.3805 66.6632 46.9933 67.019 47.1735 67.0534C47.2494 67.0679 47.3256 67.0752 47.4027 67.0752H64.5964C64.667 67.0752 64.7376 67.0692 64.8069 67.057C64.9875 67.0255 66.6044 66.6952 67.7308 64.8649C69.1168 62.6133 69.1144 59.1748 67.7243 54.645C67.2317 53.0399 69.6061 48.5906 71.4568 45.9295C72.2403 44.8977 75.9228 39.9078 75.9228 37.3106ZM69.4722 44.5253C68.6141 45.7548 64.385 52.0571 65.3965 55.3537C66.8389 60.0533 66.3573 62.3906 65.6992 63.5238C65.2403 64.3138 64.6507 64.5766 64.4381 64.649H47.565C47.3727 64.5787 46.8043 64.3167 46.3478 63.5622C45.6625 62.4278 45.15 60.0832 46.6026 55.3541C47.6154 52.0575 43.3854 45.7548 42.5273 44.5253C42.5179 44.5116 42.5078 44.4982 42.498 44.4849C40.8422 42.3081 38.5107 38.6432 38.5107 37.3106C38.5107 30.6141 48.775 23.441 55.9993 23.441C64.0084 23.441 73.4879 30.959 73.4879 37.3106C73.4879 38.6411 71.1565 42.3065 69.5006 44.4849C69.4913 44.4978 69.4812 44.5116 69.4722 44.5253Z" fill="#080029"/>
<path d="M54.3946 58.8101H51.9601V62.091H54.3946V58.8101Z" fill="#080029"/>
<path d="M60.0395 58.8101H57.605V62.091H60.0395V58.8101Z" fill="#080029"/>
<path d="M58.8221 46.4653H53.1774V48.8911H58.8221V46.4653Z" fill="#080029"/>
<path d="M58.8221 51.3867H53.1774V53.8125H58.8221V51.3867Z" fill="#080029"/>
<path d="M43.5059 38.108L48.3247 42.9097L50.0461 41.1944L45.2273 36.3927L43.5059 38.108Z" fill="#080029"/>
<path d="M61.9556 41.1936L63.6768 42.9092L68.4963 38.1082L66.7751 36.3927L61.9556 41.1936Z" fill="#080029"/>
<path d="M61.5281 32.9272H50.4714V35.3531H61.5281V32.9272Z" fill="#080029"/>
<path d="M61.5281 28.0757H50.4714V30.5015H61.5281V28.0757Z" fill="#080029"/>
<defs>
<filter id="filter0_d" x="0" y="0" width="113" height="133" filterUnits="userSpaceOnUse" color-interpolation-filters="sRGB">
<feFlood flood-opacity="0" result="BackgroundImageFix"/>
<feColorMatrix in="SourceAlpha" type="matrix" values="0 0 0 0 0 0 0 0 0 0 0 0 0 0 0 0 0 0 127 0"/>
<feOffset dx="1" dy="12"/>
<feGaussianBlur stdDeviation="11"/>
<feColorMatrix type="matrix" values="0 0 0 0 0 0 0 0 0 0 0 0 0 0 0 0 0 0 0.09 0"/>
<feBlend mode="normal" in2="BackgroundImageFix" result="effect1_dropShadow"/>
<feBlend mode="normal" in="SourceGraphic" in2="effect1_dropShadow" result="shape"/>
</filter>
</defs>
</svg>
