<svg width="55" height="55" viewBox="0 0 55 55" fill="none" xmlns="http://www.w3.org/2000/svg">
<circle cx="27.5" cy="27.5" r="26.5" stroke="#D9E8FF" stroke-width="2"/>
<path d="M41.946 22.1461C41.946 19.3214 40.2416 16.274 37.2693 13.785C34.4478 11.4221 30.9827 10.0116 27.9999 10.0116C22.0393 10.0116 14.0537 16.0111 14.0537 22.1464C14.0537 24.0808 16.6321 27.7976 17.18 28.5651C18.4393 30.4889 20.1344 33.8703 19.7927 35.0544C18.8284 38.3928 18.8256 40.9408 19.7839 42.6271C20.5664 44.0045 21.6954 44.2695 21.8215 44.295C21.8746 44.3059 21.928 44.3113 21.982 44.3113H34.0175C34.0669 44.3113 34.1163 44.3068 34.1649 44.2978C34.2913 44.2743 35.4231 44.0283 36.2116 42.6653C37.1818 40.9886 37.1801 38.428 36.207 35.0547C35.8622 33.8595 37.5243 30.5461 38.8198 28.5645C39.3682 27.7961 41.946 24.0802 41.946 22.1461ZM37.4306 27.5188C36.8299 28.4344 33.8695 33.1276 34.5776 35.5825C35.5873 39.0822 35.2502 40.8227 34.7895 41.6667C34.4682 42.255 34.0556 42.4507 33.9067 42.5045H22.0956C21.9609 42.4522 21.563 42.2571 21.2435 41.6953C20.7638 40.8504 20.4051 39.1045 21.4219 35.5828C22.1308 33.1279 19.1698 28.4344 18.5691 27.5188C18.5626 27.5086 18.5555 27.4987 18.5487 27.4887C17.3896 25.8677 15.7576 23.1385 15.7576 22.1461C15.7576 17.1594 22.9425 11.8177 27.9996 11.8177C33.6059 11.8177 40.2416 17.4162 40.2416 22.1461C40.2416 23.137 38.6096 25.8665 37.4505 27.4887C37.444 27.4984 37.4369 27.5086 37.4306 27.5188Z" fill="#0F0049"/>
<path d="M26.8763 38.1566H25.1721V40.5998H26.8763V38.1566Z" fill="#0F0049"/>
<path d="M30.8276 38.1566H29.1234V40.5998H30.8276V38.1566Z" fill="#0F0049"/>
<path d="M29.9755 28.9634H26.0242V30.7698H29.9755V28.9634Z" fill="#0F0049"/>
<path d="M29.9755 32.6285H26.0242V34.435H29.9755V32.6285Z" fill="#0F0049"/>
<path d="M19.2541 22.7401L22.6273 26.3158L23.8323 25.0385L20.4591 21.4628L19.2541 22.7401Z" fill="#0F0049"/>
<path d="M32.1689 25.038L33.3738 26.3156L36.7475 22.7404L35.5426 21.4628L32.1689 25.038Z" fill="#0F0049"/>
<path d="M31.8697 18.8821H24.13V20.6885H31.8697V18.8821Z" fill="#0F0049"/>
<path d="M31.8697 15.2692H24.13V17.0756H31.8697V15.2692Z" fill="#0F0049"/>
</svg>
