<svg width="55" height="55" viewBox="0 0 55 55" fill="none" xmlns="http://www.w3.org/2000/svg">
<circle cx="27.5" cy="27.5" r="26.5" stroke="#D9E8FF" stroke-width="2"/>
<path d="M40.7961 39.7364L38.8997 22.3005C38.8699 16.079 33.9978 11.0273 28.0133 11.0273C22.0289 11.0273 17.1567 16.0793 17.1273 22.3005L15.2305 39.7364C15.1988 40.0281 15.293 40.3195 15.488 40.5317C15.683 40.7442 15.9592 40.8574 16.2395 40.8356C16.2591 40.8343 18.1987 40.7003 19.9454 40.7003C21.1766 40.7003 21.7886 40.7663 22.0853 40.8221C23.5711 41.0999 26.4714 43.0588 27.4635 43.7904C27.6284 43.9115 27.8209 43.9726 28.0133 43.9726C28.2061 43.9726 28.3995 43.9112 28.5644 43.7891C29.5255 43.0779 32.3388 41.1676 33.7952 40.8745C34.1303 40.8072 34.8393 40.727 36.3153 40.727C38.0132 40.727 39.7768 40.8349 39.7942 40.8362C40.0729 40.8498 40.3475 40.7409 40.5409 40.529C40.7343 40.3172 40.8279 40.0268 40.7961 39.7364ZM36.3153 38.747C34.9908 38.747 34.0488 38.8071 33.434 38.9308C31.7282 39.274 29.1573 40.9762 28.0121 41.7804C26.8395 40.96 24.1729 39.2011 22.4214 38.8731C21.8713 38.7701 21.0612 38.7203 19.9448 38.7203C18.9821 38.7203 17.9837 38.7579 17.2468 38.7945L19.023 22.4691C19.0272 22.4321 19.0291 22.3949 19.0291 22.3579C19.0291 17.202 23.0591 13.0077 28.013 13.0077C32.9667 13.0077 36.997 17.202 36.997 22.3579C36.997 22.3952 36.9992 22.4325 37.003 22.4691L38.7799 38.8034C38.1064 38.7751 37.21 38.747 36.3153 38.747Z" fill="#0F0049"/>
<path d="M22.306 23.5802C23.2472 23.5802 24.0102 22.7861 24.0102 21.8065C24.0102 20.8268 23.2472 20.0327 22.306 20.0327C21.3647 20.0327 20.6017 20.8268 20.6017 21.8065C20.6017 22.7861 21.3647 23.5802 22.306 23.5802Z" fill="#0F0049"/>
<path d="M33.7206 23.5802C34.6619 23.5802 35.4249 22.7861 35.4249 21.8065C35.4249 20.8268 34.6619 20.0327 33.7206 20.0327C32.7794 20.0327 32.0164 20.8268 32.0164 21.8065C32.0164 22.7861 32.7794 23.5802 33.7206 23.5802Z" fill="#0F0049"/>
<path d="M28.0133 35.8038L32.2583 24.363H23.7677L28.0133 35.8038ZM28.0133 30.308L26.5421 26.343H29.4845L28.0133 30.308Z" fill="#0F0049"/>
</svg>
