<svg width="113" height="133" viewBox="0 0 113 133" fill="none" xmlns="http://www.w3.org/2000/svg">
<g filter="url(#filter0_d)">
<path d="M90 44.6111C90 63.7263 55.5 99 55.5 99C55.5 99 21 63.7263 21 44.6111C21 25.4959 36.4462 10 55.5 10C74.5538 10 90 25.4959 90 44.6111Z" fill="#FCFCFC"/>
</g>
<path d="M75.8514 49.843C75.6874 46.9424 74.9274 41.1901 73.9826 38.3782C71.9451 32.3099 65.8685 22.04 56.0151 22.04C46.1633 22.04 40.0855 32.3099 38.0477 38.3782C37.1022 41.1927 36.3425 46.9438 36.1792 49.8433C35.9311 54.2493 37.5614 58.5485 40.7703 61.9491C44.3751 65.7693 49.4363 67.9603 54.6563 67.9603H57.3748C62.594 67.9603 67.6551 65.7693 71.26 61.9491C74.4688 58.5481 76.0996 54.2493 75.8514 49.843ZM69.6448 60.42C66.5044 63.7476 61.9177 65.7341 57.3744 65.7341H54.6559C50.1125 65.7341 45.5251 63.7476 42.3851 60.4196C39.6003 57.4686 38.1844 53.757 38.3977 49.9683C38.5581 47.1316 39.3037 41.6193 40.154 39.0871C41.8759 33.9607 47.4066 24.2655 56.0155 24.2655C64.6259 24.2655 70.1555 33.9607 71.8766 39.0875C72.7266 41.6171 73.4729 47.1301 73.6333 49.9683C73.8463 53.757 72.43 57.4689 69.6448 60.42Z" fill="#080029"/>
<path d="M61.9614 35.6831C59.7714 35.6831 57.6958 36.421 56.0151 37.7802C54.3343 36.421 52.2588 35.6831 50.0684 35.6831C44.834 35.6831 40.5754 39.9485 40.5754 45.1914C40.5754 48.677 42.4388 51.8076 45.4143 53.4751C45.1062 54.1744 44.9469 54.907 44.9469 55.6415C44.9469 59.8223 49.8084 63.0969 56.0151 63.0969C62.2217 63.0969 67.0829 59.8223 67.0829 55.6415C67.0829 54.907 66.9232 54.174 66.6154 53.4751C69.591 51.8076 71.454 48.6766 71.454 45.1914C71.4543 39.9485 67.1958 35.6831 61.9614 35.6831ZM64.6473 51.9538L63.3195 52.4831L64.1591 53.6417C64.6247 54.2838 64.861 54.9567 64.861 55.6415C64.861 58.4765 60.8099 60.8711 56.0154 60.8711C51.2206 60.8711 47.1695 58.4765 47.1695 55.6415C47.1695 54.9571 47.4058 54.2845 47.8717 53.6417L48.7114 52.4831L47.384 51.9538C44.5984 50.8431 42.7988 48.1884 42.7988 45.1914C42.7988 41.176 46.0603 37.9089 50.0695 37.9089C52.0199 37.9089 53.8517 38.6735 55.2277 40.0613L56.0162 40.857L56.8047 40.0613C58.1806 38.6735 60.0121 37.9089 61.9625 37.9089C65.9714 37.9089 69.2332 41.176 69.2332 45.1914C69.2321 48.1884 67.4325 50.8431 64.6473 51.9538Z" fill="#080029"/>
<path d="M49.3482 46.2892C50.4476 46.2892 51.3389 45.3965 51.3389 44.2952C51.3389 43.194 50.4476 42.3013 49.3482 42.3013C48.2487 42.3013 47.3574 43.194 47.3574 44.2952C47.3574 45.3965 48.2487 46.2892 49.3482 46.2892Z" fill="#080029"/>
<path d="M62.6821 46.2892C63.7816 46.2892 64.6729 45.3965 64.6729 44.2952C64.6729 43.194 63.7816 42.3013 62.6821 42.3013C61.5827 42.3013 60.6914 43.194 60.6914 44.2952C60.6914 45.3965 61.5827 46.2892 62.6821 46.2892Z" fill="#080029"/>
<path d="M55.1858 50.2876H52.9636V53.2884H55.1858V50.2876Z" fill="#080029"/>
<path d="M59.0667 50.2876H56.8445V53.2884H59.0667V50.2876Z" fill="#080029"/>
<defs>
<filter id="filter0_d" x="0" y="0" width="113" height="133" filterUnits="userSpaceOnUse" color-interpolation-filters="sRGB">
<feFlood flood-opacity="0" result="BackgroundImageFix"/>
<feColorMatrix in="SourceAlpha" type="matrix" values="0 0 0 0 0 0 0 0 0 0 0 0 0 0 0 0 0 0 127 0"/>
<feOffset dx="1" dy="12"/>
<feGaussianBlur stdDeviation="11"/>
<feColorMatrix type="matrix" values="0 0 0 0 0 0 0 0 0 0 0 0 0 0 0 0 0 0 0.09 0"/>
<feBlend mode="normal" in2="BackgroundImageFix" result="effect1_dropShadow"/>
<feBlend mode="normal" in="SourceGraphic" in2="effect1_dropShadow" result="shape"/>
</filter>
</defs>
</svg>
