<svg width="55" height="55" viewBox="0 0 55 55" fill="none" xmlns="http://www.w3.org/2000/svg">
<circle cx="27.5" cy="27.5" r="26.5" stroke="#D9E8FF" stroke-width="2"/>
<path d="M42.8886 31.5796C42.7656 29.4357 42.1956 25.1841 41.487 23.1057C39.9589 18.6204 35.4014 11.0297 28.0114 11.0297C20.6225 11.0297 16.0642 18.6204 14.5359 23.1057C13.8267 25.186 13.257 29.4368 13.1345 31.5799C12.9484 34.8365 14.1711 38.0141 16.5778 40.5277C19.2814 43.3513 23.0772 44.9707 26.9922 44.9707H29.0311C32.9456 44.9707 36.7414 43.3513 39.445 40.5277C41.8517 38.0139 43.0748 34.8365 42.8886 31.5796ZM38.2336 39.3975C35.8784 41.857 32.4384 43.3253 29.0309 43.3253H26.992C23.5845 43.3253 20.1439 41.857 17.7889 39.3972C15.7003 37.216 14.6384 34.4727 14.7984 31.6723C14.9186 29.5756 15.4778 25.5013 16.1156 23.6297C17.407 19.8406 21.555 12.6746 28.0117 12.6746C34.4695 12.6746 38.6167 19.8406 39.9075 23.63C40.545 25.4997 41.1048 29.5745 41.225 31.6723C41.3848 34.4727 40.3225 37.2162 38.2336 39.3975Z" fill="#0F0049"/>
<path d="M32.4711 21.1136C30.8286 21.1136 29.2719 21.659 28.0114 22.6637C26.7508 21.659 25.1941 21.1136 23.5514 21.1136C19.6255 21.1136 16.4316 24.2663 16.4316 28.1415C16.4316 30.7178 17.8291 33.0317 20.0608 34.2642C19.8297 34.7811 19.7103 35.3226 19.7103 35.8655C19.7103 38.9557 23.3564 41.376 28.0114 41.376C32.6664 41.376 36.3122 38.9557 36.3122 35.8655C36.3122 35.3226 36.1925 34.7808 35.9616 34.2642C38.1933 33.0317 39.5905 30.7176 39.5905 28.1415C39.5908 24.2663 36.3969 21.1136 32.4711 21.1136ZM34.4855 33.1398L33.4897 33.5311L34.1194 34.3874C34.4686 34.862 34.6458 35.3594 34.6458 35.8655C34.6458 37.9609 31.6075 39.7308 28.0116 39.7308C24.4155 39.7308 21.3772 37.9609 21.3772 35.8655C21.3772 35.3596 21.5544 34.8625 21.9039 34.3874L22.5336 33.5311L21.538 33.1398C19.4489 32.3188 18.0991 30.3567 18.0991 28.1415C18.0991 25.1736 20.5453 22.7588 23.5522 22.7588C25.015 22.7588 26.3889 23.3239 27.4208 24.3497L28.0122 24.9378L28.6036 24.3497C29.6355 23.3239 31.0091 22.7588 32.4719 22.7588C35.4786 22.7588 37.925 25.1736 37.925 28.1415C37.9241 30.3567 36.5744 32.3188 34.4855 33.1398Z" fill="#0F0049"/>
<path d="M23.0111 28.9529C23.8357 28.9529 24.5042 28.2931 24.5042 27.4792C24.5042 26.6652 23.8357 26.0054 23.0111 26.0054C22.1865 26.0054 21.5181 26.6652 21.5181 27.4792C21.5181 28.2931 22.1865 28.9529 23.0111 28.9529Z" fill="#0F0049"/>
<path d="M33.0116 28.9529C33.8362 28.9529 34.5047 28.2931 34.5047 27.4792C34.5047 26.6652 33.8362 26.0054 33.0116 26.0054C32.187 26.0054 31.5186 26.6652 31.5186 27.4792C31.5186 28.2931 32.187 28.9529 33.0116 28.9529Z" fill="#0F0049"/>
<path d="M27.3894 31.9081H25.7228V34.126H27.3894V31.9081Z" fill="#0F0049"/>
<path d="M30.3 31.9081H28.6333V34.126H30.3V31.9081Z" fill="#0F0049"/>
</svg>
