<?xml version="1.0" encoding="utf-8"?><svg viewBox="0 0 243 197" xmlns="http://www.w3.org/2000/svg" xmlns:xlink="http://www.w3.org/1999/xlink"><style>:root>svg{display:none}:root>svg:target{display:block}</style><svg fill="none" viewBox="0 0 9 16" id="Arrow_1" xmlns="http://www.w3.org/2000/svg"><path d="M.293 7.293a1 1 0 000 1.414l6.364 6.364a1 1 0 001.414-1.414L2.414 8l5.657-5.657A1 1 0 006.657.93L.293 7.293zM2 7H1v2h1V7z" fill="#D3D3D3"/></svg><svg fill="none" viewBox="0 0 9 16" id="Arrow_2" xmlns="http://www.w3.org/2000/svg"><path d="M8.707 7.293a1 1 0 010 1.414l-6.364 6.364A1 1 0 01.93 13.657L6.586 8 .929 2.343A1 1 0 012.343.93l6.364 6.364zM7 7h1v2H7V7z" fill="#D3D3D3"/></svg><svg fill="none" viewBox="0 0 55 55" id="additional-link" xmlns="http://www.w3.org/2000/svg"><circle cx="27.5" cy="27.5" r="26.5" stroke="#D9E8FF" stroke-width="2"/><path d="M27.374 31.048a.366.366 0 01-.378-.378v-.72c.024-.636.186-1.182.486-1.638.3-.456.738-.978 1.314-1.566.468-.48.81-.876 1.026-1.188.216-.312.324-.654.324-1.026 0-.552-.234-.99-.702-1.314-.456-.324-.99-.486-1.602-.486-1.428 0-2.268.72-2.52 2.16-.06.264-.216.396-.468.396h-.864a.39.39 0 01-.288-.108.39.39 0 01-.108-.288c.024-.66.21-1.266.558-1.818.36-.564.864-1.014 1.512-1.35.648-.336 1.392-.504 2.232-.504.888 0 1.632.156 2.232.468.612.3 1.062.696 1.35 1.188.288.48.432.996.432 1.548 0 .612-.138 1.14-.414 1.584-.276.444-.69.96-1.242 1.548-.456.48-.798.888-1.026 1.224a2.21 2.21 0 00-.396 1.098c-.024.336-.036.588-.036.756-.06.276-.21.414-.45.414h-.972zM27.23 34a.454.454 0 01-.306-.108.454.454 0 01-.108-.306v-1.098a.39.39 0 01.108-.288.417.417 0 01.306-.126h1.17c.12 0 .222.042.306.126a.36.36 0 01.126.288v1.098c0 .12-.042.222-.126.306A.454.454 0 0128.4 34h-1.17z" fill="#0F0049"/></svg><svg fill="none" viewBox="0 0 55 55" id="alligator-link" xmlns="http://www.w3.org/2000/svg"><circle cx="27.5" cy="27.5" r="26.5" stroke="#D9E8FF" stroke-width="2"/><path d="M41.946 22.146c0-2.825-1.704-5.872-4.677-8.361-2.821-2.363-6.286-3.773-9.27-3.773-5.96 0-13.945 6-13.945 12.134 0 1.935 2.578 5.652 3.126 6.42 1.26 1.923 2.954 5.304 2.613 6.488-.965 3.339-.967 5.887-.01 7.573.783 1.377 1.912 1.642 2.038 1.668.054.01.107.016.161.016h12.035a.81.81 0 00.148-.013c.126-.024 1.258-.27 2.047-1.633.97-1.676.968-4.237-.005-7.61-.345-1.196 1.317-4.509 2.613-6.49.548-.769 3.126-4.485 3.126-6.419zm-4.515 5.373c-.601.915-3.561 5.609-2.853 8.064 1.01 3.5.672 5.24.211 6.084-.32.588-.733.784-.882.837H22.096c-.135-.052-.533-.247-.852-.809-.48-.845-.839-2.59.178-6.112.709-2.455-2.252-7.149-2.853-8.064l-.02-.03c-1.16-1.621-2.791-4.35-2.791-5.343 0-4.987 7.184-10.328 12.242-10.328 5.606 0 12.242 5.598 12.242 10.328 0 .991-1.632 3.72-2.791 5.343l-.02.03z" fill="#0F0049"/><path d="M26.876 38.157h-1.704V40.6h1.704v-2.443zm3.952 0h-1.705V40.6h1.705v-2.443zm-.852-9.194h-3.952v1.807h3.951v-1.807zm0 3.666h-3.952v1.806h3.951v-1.806zM19.254 22.74l3.373 3.576 1.205-1.277-3.373-3.576-1.205 1.277zm12.915 2.298l1.205 1.278 3.373-3.576-1.204-1.277-3.374 3.575zm-.299-6.156h-7.74v1.806h7.74v-1.806zm0-3.612h-7.74v1.806h7.74v-1.807z" fill="#0F0049"/></svg><svg fill="none" viewBox="0 0 113 133" id="alligator_marker" xmlns="http://www.w3.org/2000/svg"><g filter="url(#aefilter0_d)"><path d="M90 44.611C90 63.726 55.5 99 55.5 99S21 63.726 21 44.611C21 25.496 36.446 10 55.5 10 74.554 10 90 25.496 90 44.611z" fill="#FCFCFC"/></g><path d="M75.923 37.31c0-3.793-2.435-7.885-6.681-11.227-4.03-3.173-8.981-5.067-13.242-5.067-8.515 0-19.923 8.056-19.923 16.295 0 2.598 3.683 7.589 4.466 8.62 1.799 2.583 4.22 7.123 3.732 8.714-1.377 4.482-1.381 7.904-.012 10.169 1.117 1.85 2.73 2.205 2.91 2.24.076.014.153.021.23.021h17.193c.071 0 .142-.006.21-.018.181-.032 1.798-.362 2.925-2.192 1.386-2.252 1.383-5.69-.007-10.22-.492-1.605 1.882-6.054 3.733-8.716.783-1.031 4.466-6.021 4.466-8.618zm-6.45 7.215c-.859 1.23-5.088 7.532-4.076 10.829 1.442 4.7.96 7.037.302 8.17-.459.79-1.048 1.053-1.26 1.125H47.564c-.192-.07-.76-.332-1.217-1.087-.685-1.134-1.198-3.479.255-8.208 1.012-3.297-3.218-9.6-4.076-10.829l-.029-.04c-1.656-2.177-3.987-5.842-3.987-7.174 0-6.697 10.264-13.87 17.488-13.87 8.01 0 17.489 7.518 17.489 13.87 0 1.33-2.332 4.995-3.987 7.174l-.029.04z" fill="#080029"/><path d="M54.395 58.81H51.96v3.281h2.435v-3.28zm5.645 0h-2.435v3.281h2.434v-3.28zm-1.218-12.345h-5.645v2.426h5.645v-2.426zm0 4.922h-5.645v2.425h5.645v-2.425zM43.506 38.108l4.819 4.802 1.721-1.716-4.819-4.801-1.721 1.715zm18.45 3.086l1.72 1.715 4.82-4.8-1.72-1.716-4.82 4.8zm-.428-8.267H50.471v2.426h11.057v-2.426zm0-4.851H50.471V30.5h11.057v-2.425z" fill="#080029"/><defs><filter id="aefilter0_d" x="0" y="0" width="113" height="133" filterUnits="userSpaceOnUse" color-interpolation-filters="sRGB"><feFlood flood-opacity="0" result="BackgroundImageFix"/><feColorMatrix in="SourceAlpha" values="0 0 0 0 0 0 0 0 0 0 0 0 0 0 0 0 0 0 127 0"/><feOffset dx="1" dy="12"/><feGaussianBlur stdDeviation="11"/><feColorMatrix values="0 0 0 0 0 0 0 0 0 0 0 0 0 0 0 0 0 0 0.09 0"/><feBlend in2="BackgroundImageFix" result="effect1_dropShadow"/><feBlend in="SourceGraphic" in2="effect1_dropShadow" result="shape"/></filter></defs></svg><svg fill="none" viewBox="0 0 206 99" id="arrow-cicl" xmlns="http://www.w3.org/2000/svg"><path d="M197.293 98.207a1 1 0 001.414 0l6.364-6.364a1 1 0 10-1.414-1.414L198 96.086l-5.657-5.657a1 1 0 10-1.414 1.414l6.364 6.364zM.038.774a128.771 128.771 0 001.584 5.147l1.898-.628A125.988 125.988 0 011.962.226L.038.774zM5.37 15.71a92.005 92.005 0 004.759 9.367l1.727-1.01A90.018 90.018 0 017.2 14.905l-1.83.805zm10.653 18.087a69.923 69.923 0 007.08 7.795l1.373-1.453a67.926 67.926 0 01-6.877-7.573l-1.576 1.23zM31.3 48.202a69.724 69.724 0 009.14 5.275l.868-1.802a67.718 67.718 0 01-8.879-5.123l-1.13 1.65zm18.924 9.182A94.098 94.098 0 0060.4 60.056l.403-1.96a92.11 92.11 0 01-9.96-2.614l-.618 1.902zm20.553 4.307c3.45.393 6.937.654 10.444.81l.089-1.998a150.007 150.007 0 01-10.306-.799l-.227 1.987zm20.909.991c3.484-.025 6.973-.125 10.45-.275l-.087-1.998c-3.457.15-6.922.249-10.377.273l.014 2zm20.867-.85c3.503-.229 6.979-.481 10.407-.731l-.145-1.995c-3.429.25-6.898.502-10.392.73l.13 1.995zm20.801-1.464c3.534-.23 6.995-.426 10.362-.554l-.076-1.999c-3.392.13-6.871.326-10.416.557l.13 1.996zm20.73-.696c3.597.058 7.039.25 10.297.621l.227-1.987c-3.337-.38-6.846-.575-10.492-.634l-.032 2zm20.349 2.567c3.41 1 6.49 2.335 9.199 4.085l1.085-1.68c-2.9-1.873-6.164-3.281-9.722-4.324l-.562 1.919zm16.387 10.955c1.792 2.543 3.234 5.551 4.273 9.107l1.92-.56c-1.095-3.746-2.627-6.958-4.558-9.699l-1.635 1.152zm5.99 19.045c.125 1.669.189 3.421.189 5.261h2c0-1.886-.066-3.689-.195-5.41l-1.994.149z" fill="#0F0049"/></svg><svg fill="none" viewBox="0 0 243 197" id="arrow-cicl2" xmlns="http://www.w3.org/2000/svg"><path d="M68.5 59.27l-.843-.537.843.537zm42 33.73l.754.657L110.5 93zM59 62l-.199-.98L59 62zM10.533 196.884a1 1 0 001.351-.417l4.205-7.957a1 1 0 00-1.768-.935l-3.738 7.074-7.073-3.738a1 1 0 00-.935 1.769l7.958 4.204zm1.423-1.179a267.02 267.02 0 01-1.462-4.9l-1.922.553c.469 1.628.96 3.274 1.473 4.937l1.91-.59zm-4.062-14.671a215.557 215.557 0 01-2.171-9.895l-1.963.381a218.2 218.2 0 002.19 9.987l1.944-.473zm-3.842-19.89a163.17 163.17 0 01-1.086-10.029l-1.994.152c.25 3.284.615 6.667 1.1 10.152l1.98-.275zM2.55 141.007a120.45 120.45 0 01.37-10.084l-1.994-.159a122.44 122.44 0 00-.376 10.251l2-.008zm1.647-20.071a89.097 89.097 0 012.314-9.785l-1.916-.572a91.049 91.049 0 00-2.367 10.005l1.969.352zm5.787-19.205a70.137 70.137 0 014.707-8.842L13 91.823a72.103 72.103 0 00-4.843 9.095l1.828.813zM20.65 84.844a64.073 64.073 0 017.129-7.026l-1.29-1.53a66.07 66.07 0 00-7.35 7.246l1.511 1.31zm15.26-12.868a68.884 68.884 0 018.918-4.568l-.781-1.84a70.874 70.874 0 00-9.177 4.7l1.04 1.708zm18.402-7.84A77.293 77.293 0 0159.2 62.98l-.398-1.96c-1.679.34-3.351.734-5.012 1.185l.523 1.93zM59.2 62.98c1.634-.331 3.23-.62 4.79-.87l-.317-1.974c-1.586.253-3.21.547-4.87.884l.397 1.96zm14.443-1.952c3.45-.21 6.667-.201 9.656-.005l.132-1.995c-3.08-.203-6.382-.211-9.91.004l.122 1.996zm19.174 1.402c3.413.824 6.39 1.943 8.942 3.275l.925-1.773c-2.71-1.414-5.841-2.587-9.397-3.446l-.47 1.944zm16.414 8.96c2.254 2.547 3.627 5.342 4.168 8.15l1.964-.38c-.615-3.187-2.164-6.304-4.635-9.095l-1.497 1.326zm3.046 17.1a16.467 16.467 0 01-2.53 3.853l1.508 1.314a18.491 18.491 0 002.834-4.32l-1.812-.847zm-2.53 3.853a27.923 27.923 0 01-3.651 3.5l1.246 1.565a29.951 29.951 0 003.913-3.75l-1.508-1.315zm-12.55 8.114a26.71 26.71 0 01-10.002.909l-.192 1.991a28.73 28.73 0 0010.75-.979l-.557-1.921zm-19.687-1.84c-3.049-1.498-5.79-3.542-8.015-6.035l-1.492 1.332c2.405 2.696 5.358 4.893 8.625 6.499l.882-1.795zM64.598 83.905c-.91-3.022-1.216-6.36-.746-9.953l-1.984-.259c-.505 3.867-.178 7.49.814 10.788l1.916-.576zM66.83 64.3a43.276 43.276 0 012.512-4.491l-1.686-1.075a45.27 45.27 0 00-2.628 4.698l1.802.868zm2.512-4.491a106.01 106.01 0 012.649-3.957l-1.637-1.15a108.54 108.54 0 00-2.698 4.032l1.686 1.075zm8.46-11.49a106.065 106.065 0 016.465-6.976l-1.404-1.423a108.02 108.02 0 00-6.587 7.108l1.527 1.292zm13.525-13.355a113.617 113.617 0 017.584-5.754l-1.142-1.642a115.638 115.638 0 00-7.717 5.855l1.275 1.541zm15.613-10.873a129.263 129.263 0 018.402-4.494l-.878-1.797a131.31 131.31 0 00-8.533 4.564l1.009 1.727zm17.112-8.385a152.05 152.05 0 018.946-3.313l-.636-1.896a153.897 153.897 0 00-9.064 3.356l.754 1.853zm18.08-6.081c3.044-.83 6.141-1.583 9.288-2.263l-.423-1.955c-3.179.687-6.311 1.45-9.391 2.288l.526 1.93zM160.8 5.576c3.115-.515 6.273-.964 9.469-1.346l-.238-1.986c-3.225.386-6.412.838-9.558 1.36l.327 1.972zm18.984-2.282c3.152-.245 6.338-.43 9.553-.555L189.261.74a249.42 249.42 0 00-9.631.559l.155 1.994zm19.118-.753c3.168-.01 6.361.036 9.576.134l.062-1.999c-3.238-.1-6.453-.145-9.644-.135l.006 2zm19.134.581c3.167.198 6.352.445 9.553.742l.185-1.992a322.272 322.272 0 00-9.613-.746l-.125 1.996zm19.072 1.76c1.583.192 3.168.395 4.757.61l.268-1.982a352.14 352.14 0 00-4.784-.613l-.241 1.985z" fill="#0F0049"/></svg><svg fill="none" viewBox="0 0 65 65" id="arrow-left" xmlns="http://www.w3.org/2000/svg"><circle cx="32.5" cy="32.5" r="32.5" fill="#181818"/><path d="M17.293 33.707a1 1 0 010-1.414l6.364-6.364a1 1 0 011.414 1.414L19.414 33l5.657 5.657a1 1 0 01-1.414 1.414l-6.364-6.364zM46 34H18v-2h28v2z" fill="#FCFCFC"/></svg><svg fill="none" viewBox="0 0 65 65" id="arrow-right" xmlns="http://www.w3.org/2000/svg"><circle cx="32.5" cy="32.5" r="32.5" fill="#181818"/><path d="M47.707 33.707a1 1 0 000-1.414l-6.364-6.364a1 1 0 00-1.414 1.414L45.586 33l-5.657 5.657a1 1 0 001.414 1.414l6.364-6.364zM19 34h28v-2H19v2z" fill="#FCFCFC"/></svg><svg fill="none" viewBox="0 0 9 16" id="arrow-small" xmlns="http://www.w3.org/2000/svg"><path d="M.293 7.293a1 1 0 000 1.414l6.364 6.364a1 1 0 001.414-1.414L2.414 8l5.657-5.657A1 1 0 006.657.93L.293 7.293zM2 7H1v2h1V7z" fill="#AEAEAE"/></svg><svg fill="none" viewBox="0 0 9 16" id="arrow-small-left" xmlns="http://www.w3.org/2000/svg"><path d="M8.207 7.293a1 1 0 010 1.414l-6.364 6.364A1 1 0 01.43 13.657L6.086 8 .429 2.343A1 1 0 011.843.93l6.364 6.364zM6.5 7h1v2h-1V7z" fill="#AEAEAE"/></svg><svg fill="none" viewBox="0 0 48 48" id="arrow-top" xmlns="http://www.w3.org/2000/svg"><path d="M24.707 15.293a1 1 0 00-1.414 0l-6.364 6.364a1 1 0 001.414 1.414L24 17.414l5.657 5.657a1 1 0 001.414-1.414l-6.364-6.364zM25 34V16h-2v18h2z" fill="#0F0049"/><circle cx="24" cy="24" r="23" stroke="#F0F0F0" stroke-width="2"/></svg><svg fill="none" viewBox="0 0 86 86" id="button-down" xmlns="http://www.w3.org/2000/svg"><path fill="#FCFCFC" d="M0 0h86v86H0z"/><path d="M43.707 48.707a1 1 0 01-1.414 0l-6.364-6.364a1 1 0 011.414-1.414L43 46.586l5.657-5.657a1 1 0 011.414 1.414l-6.364 6.364zM44 47v1h-2v-1h2z" fill="#AEAEAE"/></svg><svg fill="none" viewBox="0 0 86 86" id="button-up" xmlns="http://www.w3.org/2000/svg"><path fill="#FCFCFC" d="M0 0h86v86H0z"/><path d="M43.707 41.293a1 1 0 00-1.414 0l-6.364 6.364a1 1 0 001.414 1.414L43 43.414l5.657 5.657a1 1 0 001.414-1.414l-6.364-6.364zM44 43v-1h-2v1h2z" fill="#AEAEAE"/></svg><svg fill="none" viewBox="0 0 55 55" id="eagle-link" xmlns="http://www.w3.org/2000/svg"><circle cx="27.5" cy="27.5" r="26.5" stroke="#D9E8FF" stroke-width="2"/><path d="M40.796 39.736L38.9 22.301c-.03-6.222-4.902-11.274-10.887-11.274-5.984 0-10.856 5.052-10.886 11.274l-1.896 17.435c-.032.292.062.584.257.796a.926.926 0 00.752.304c.02-.002 1.959-.136 3.705-.136 1.232 0 1.844.066 2.14.122 1.486.278 4.386 2.237 5.378 2.968a.925.925 0 001.1-.001c.962-.711 3.776-2.621 5.232-2.915.335-.067 1.044-.147 2.52-.147 1.698 0 3.462.108 3.48.11a.947.947 0 00.746-.308c.193-.212.287-.502.255-.793zm-4.48-.989c-1.325 0-2.267.06-2.882.184-1.706.343-4.277 2.045-5.422 2.85-1.172-.821-3.84-2.58-5.59-2.908-.55-.103-1.36-.153-2.477-.153-.963 0-1.961.038-2.698.075l1.776-16.326a.987.987 0 00.006-.111c0-5.156 4.03-9.35 8.984-9.35s8.984 4.194 8.984 9.35c0 .037.002.075.006.111l1.777 16.334a60.471 60.471 0 00-2.465-.056z" fill="#0F0049"/><path d="M22.306 23.58c.941 0 1.704-.794 1.704-1.773 0-.98-.763-1.774-1.704-1.774s-1.704.794-1.704 1.773c0 .98.763 1.774 1.704 1.774zm11.414 0c.942 0 1.705-.794 1.705-1.773 0-.98-.763-1.774-1.704-1.774-.942 0-1.705.794-1.705 1.773 0 .98.763 1.774 1.705 1.774zm-5.707 12.224l4.245-11.441h-8.49l4.245 11.44zm0-5.496l-1.47-3.965h2.942l-1.472 3.965z" fill="#0F0049"/></svg><svg fill="none" viewBox="0 0 140 168" id="eagle_marker" xmlns="http://www.w3.org/2000/svg"><g filter="url(#apfilter0_d)"><path d="M117 58.222C117 84.855 69 134 69 134S21 84.855 21 58.222C21 31.59 42.49 10 69 10s48 21.59 48 48.222z" fill="#FCFCFC"/><path d="M116 58.222c0 6.402-2.9 14.286-7.38 22.602-4.465 8.287-10.43 16.88-16.413 24.665-5.98 7.782-11.963 14.738-16.452 19.749a335.883 335.883 0 01-5.421 5.913c-.548.583-.997 1.056-1.334 1.408-.337-.352-.786-.825-1.334-1.408a335.555 335.555 0 01-5.421-5.913c-4.489-5.011-10.472-11.967-16.452-19.749-5.983-7.786-11.948-16.378-16.413-24.665C24.9 72.508 22 64.624 22 58.222 22 32.138 43.047 11 69 11s47 21.138 47 47.222z" stroke="#609FFF" stroke-width="2"/></g><g clip-path="url(#apclip0)" fill="#0F0049"><path d="M95.716 83.236L91.86 47.901c-.061-12.608-9.968-22.845-22.137-22.845-12.17 0-22.077 10.238-22.136 22.845L43.73 83.236a2.052 2.052 0 00.523 1.612c.397.43.958.66 1.528.616.04-.003 3.984-.274 7.536-.274 2.504 0 3.748.133 4.351.246 3.022.563 8.92 4.533 10.937 6.016.335.245.726.37 1.118.37a1.88 1.88 0 001.12-.373c1.954-1.441 7.675-5.312 10.637-5.906.681-.137 2.123-.3 5.124-.3 3.453 0 7.039.22 7.074.222a1.93 1.93 0 001.519-.623 2.052 2.052 0 00.519-1.606zm-9.112-2.005c-2.693 0-4.608.122-5.859.373-3.468.695-8.696 4.145-11.025 5.775-2.384-1.663-7.806-5.228-11.368-5.892-1.119-.209-2.766-.31-5.036-.31-1.958 0-3.988.076-5.486.15l3.611-33.084c.009-.075.013-.15.013-.225 0-10.45 8.194-18.95 18.268-18.95 10.073 0 18.268 8.5 18.268 18.95 0 .075.005.15.013.225l3.613 33.102c-1.37-.057-3.192-.114-5.012-.114z"/><path d="M58.117 50.494c1.914 0 3.466-1.609 3.466-3.594 0-1.986-1.552-3.595-3.466-3.595-1.914 0-3.465 1.61-3.465 3.595s1.551 3.594 3.465 3.594zm23.211 0c1.914 0 3.466-1.609 3.466-3.594 0-1.986-1.552-3.595-3.466-3.595-1.914 0-3.465 1.61-3.465 3.595s1.551 3.594 3.465 3.594zM69.723 75.266l8.632-23.185H61.089l8.634 23.185zm0-11.137l-2.992-8.035h5.983l-2.991 8.035z"/></g><defs><clipPath id="apclip0"><path fill="#fff" transform="translate(43.26 25)" d="M0 0h52.87v66.876H0z"/></clipPath><filter id="apfilter0_d" x="0" y="0" width="140" height="168" filterUnits="userSpaceOnUse" color-interpolation-filters="sRGB"><feFlood flood-opacity="0" result="BackgroundImageFix"/><feColorMatrix in="SourceAlpha" values="0 0 0 0 0 0 0 0 0 0 0 0 0 0 0 0 0 0 127 0"/><feOffset dx="1" dy="12"/><feGaussianBlur stdDeviation="11"/><feColorMatrix values="0 0 0 0 0 0 0 0 0 0 0 0 0 0 0 0 0 0 0.09 0"/><feBlend in2="BackgroundImageFix" result="effect1_dropShadow"/><feBlend in="SourceGraphic" in2="effect1_dropShadow" result="shape"/></filter></defs></svg><svg fill="none" viewBox="0 0 24 24" id="facebook-icon" xmlns="http://www.w3.org/2000/svg"><path d="M14.25 17.953c0 1.884-.005 3.764.005 5.649 0 .206-.057.262-.263.257a427.56 427.56 0 00-4.805 0c-.22 0-.29-.051-.29-.28.01-3.737.005-7.468.005-11.204 0-.375.042-.328-.343-.333-.68 0-1.359-.005-2.039.005-.164 0-.21-.052-.21-.216.004-1.186.004-2.376 0-3.562 0-.164.046-.216.21-.211.713.01 1.42-.005 2.133.01.192.004.253-.048.253-.25-.01-.998 0-2-.004-3-.005-.829.121-1.63.539-2.362.45-.797 1.125-1.345 1.959-1.701.703-.3 1.444-.44 2.203-.483C15.108.188 16.617.258 18.122.23c.169-.005.21.056.21.215-.004 1.233-.004 2.47 0 3.703 0 .188-.07.216-.234.216-.867-.005-1.734-.005-2.601-.005-.722 0-1.242.52-1.242 1.233 0 .736.009 1.467-.005 2.203-.005.211.066.263.267.263 1.186-.01 2.377 0 3.563-.01.197 0 .262.057.239.254-.07.604-.131 1.209-.197 1.814-.061.58-.164 1.157-.258 1.734-.028.164-.08.202-.23.202-1.017-.005-2.03-.005-3.046 0-.399 0-.343-.052-.343.351.005 1.847.005 3.699.005 5.55z" fill="#080029"/></svg><svg fill="none" viewBox="0 0 153 117" id="footer-logo" xmlns="http://www.w3.org/2000/svg"><path d="M65.194 104.028c3.725 1.863 13.41 4.47 22.35 0" stroke="#FCFCFC" stroke-width="6.277" stroke-linecap="round"/><path d="M28.552 16.995c-3.835 8.43-11.098 11.212-16.785 9.688C6.081 25.16 1.63 17.451 3.152 11.765 4.676 6.08 12.386 1.63 18.072 3.153c5.687 1.524 12.004 8.156 10.48 13.842zm94.612.143c3.838 8.435 11.104 11.22 16.793 9.696 5.689-1.525 10.143-9.238 8.619-14.928-1.525-5.689-9.239-10.142-14.928-8.618-5.689 1.525-12.008 8.161-10.484 13.85zM41.9 94.355c-8.036 0-14.363-1.967-18.98-5.9-4.617-3.933-7.068-9.718-7.353-17.356-.057-1.653-.086-4.104-.086-7.353 0-3.306.029-5.785.086-7.439.285-7.524 2.764-13.309 7.438-17.356 4.731-4.104 11.03-6.156 18.896-6.156 7.866 0 14.164 2.052 18.895 6.156 4.731 4.047 7.21 9.832 7.439 17.356.114 3.306.17 5.786.17 7.439 0 1.596-.056 4.047-.17 7.353-.285 7.638-2.736 13.423-7.353 17.356-4.617 3.933-10.944 5.9-18.981 5.9zm0-12.312c3.136 0 5.615-.94 7.44-2.822 1.88-1.88 2.878-4.759 2.992-8.635.114-3.306.17-5.643.17-7.011 0-1.482-.056-3.819-.17-7.011-.114-3.876-1.112-6.755-2.993-8.636-1.88-1.88-4.36-2.821-7.438-2.821-3.078 0-5.558.94-7.439 2.822-1.824 1.88-2.821 4.759-2.992 8.635-.057 1.596-.086 3.933-.086 7.011 0 3.021.029 5.358.086 7.011.17 3.876 1.168 6.755 2.992 8.636 1.824 1.88 4.304 2.821 7.439 2.821zm69.419 12.312c-8.037 0-14.364-1.967-18.98-5.9-4.618-3.933-7.069-9.718-7.354-17.356-.057-1.653-.085-4.104-.085-7.353 0-3.306.028-5.785.085-7.439.285-7.524 2.765-13.309 7.439-17.356 4.73-4.104 11.029-6.156 18.895-6.156s14.165 2.052 18.896 6.156c4.731 4.047 7.21 9.832 7.438 17.356.114 3.306.171 5.786.171 7.439 0 1.596-.057 4.047-.171 7.353-.285 7.638-2.736 13.423-7.353 17.356-4.617 3.933-10.944 5.9-18.981 5.9zm0-12.312c3.135 0 5.615-.94 7.439-2.822 1.881-1.88 2.878-4.759 2.992-8.635.114-3.306.171-5.643.171-7.011 0-1.482-.057-3.819-.171-7.011-.114-3.876-1.111-6.755-2.992-8.636-1.881-1.88-4.361-2.821-7.439-2.821-3.078 0-5.557.94-7.438 2.822-1.824 1.88-2.822 4.759-2.993 8.635-.057 1.596-.085 3.933-.085 7.011 0 3.021.028 5.358.085 7.011.171 3.876 1.169 6.755 2.993 8.636 1.824 1.88 4.303 2.821 7.438 2.821z" fill="#FCFCFC"/></svg><svg fill="none" viewBox="0 0 55 55" id="gorilla-link" xmlns="http://www.w3.org/2000/svg"><circle cx="27.5" cy="27.5" r="26.5" stroke="#D9E8FF" stroke-width="2"/><path d="M42.889 31.58c-.123-2.144-.693-6.396-1.402-8.474-1.528-4.486-6.086-12.076-13.476-12.076-7.389 0-11.947 7.59-13.475 12.076-.71 2.08-1.279 6.33-1.402 8.474-.186 3.257 1.037 6.434 3.444 8.948a14.484 14.484 0 0010.414 4.443h2.04c3.914 0 7.71-1.62 10.413-4.443 2.407-2.514 3.63-5.691 3.444-8.948zm-4.655 7.818c-2.356 2.459-5.796 3.927-9.203 3.927h-2.039c-3.408 0-6.848-1.468-9.203-3.928-2.089-2.181-3.15-4.924-2.99-7.725.12-2.096.679-6.17 1.317-8.042 1.291-3.79 5.439-10.955 11.896-10.955 6.457 0 10.605 7.166 11.895 10.955.638 1.87 1.198 5.945 1.318 8.042.16 2.8-.903 5.544-2.991 7.726z" fill="#0F0049"/><path d="M32.471 21.114c-1.642 0-3.2.545-4.46 1.55a7.118 7.118 0 00-4.46-1.55c-3.925 0-7.12 3.152-7.12 7.027 0 2.577 1.398 4.89 3.63 6.123a3.915 3.915 0 00-.35 1.601c0 3.09 3.645 5.511 8.3 5.511 4.655 0 8.301-2.42 8.301-5.51 0-.543-.12-1.085-.35-1.602a6.97 6.97 0 003.628-6.123c0-3.875-3.193-7.027-7.119-7.027zm2.015 12.026l-.996.391.63.856c.349.475.526.972.526 1.478 0 2.096-3.038 3.866-6.634 3.866-3.596 0-6.635-1.77-6.635-3.866 0-.505.177-1.003.527-1.478l.63-.856-.996-.391c-2.09-.821-3.439-2.783-3.439-4.998 0-2.968 2.446-5.383 5.453-5.383a5.45 5.45 0 013.869 1.59l.591.589.592-.588a5.45 5.45 0 013.868-1.591c3.007 0 5.453 2.415 5.453 5.383 0 2.215-1.35 4.177-3.44 4.998z" fill="#0F0049"/><path d="M23.011 28.953c.825 0 1.493-.66 1.493-1.474s-.668-1.474-1.493-1.474c-.825 0-1.493.66-1.493 1.474s.668 1.474 1.493 1.474zm10.001 0c.824 0 1.493-.66 1.493-1.474s-.669-1.474-1.493-1.474c-.825 0-1.493.66-1.493 1.474s.668 1.474 1.493 1.474zm-5.622 2.955h-1.667v2.218h1.666v-2.218zm2.91 0h-1.667v2.218H30.3v-2.218z" fill="#0F0049"/></svg><svg fill="none" viewBox="0 0 113 133" id="gorilla_marker" xmlns="http://www.w3.org/2000/svg"><g filter="url(#atfilter0_d)"><path d="M90 44.611C90 63.726 55.5 99 55.5 99S21 63.726 21 44.611C21 25.496 36.446 10 55.5 10 74.554 10 90 25.496 90 44.611z" fill="#FCFCFC"/></g><path d="M75.851 49.843c-.164-2.9-.924-8.653-1.868-11.465-2.038-6.068-8.115-16.338-17.968-16.338-9.852 0-15.93 10.27-17.967 16.338-.946 2.815-1.706 8.566-1.869 11.465-.248 4.406 1.382 8.705 4.591 12.106 3.605 3.82 8.666 6.011 13.886 6.011h2.719c5.219 0 10.28-2.19 13.885-6.01 3.209-3.402 4.84-7.7 4.591-12.107zM69.645 60.42c-3.14 3.328-7.727 5.314-12.27 5.314h-2.72c-4.543 0-9.13-1.986-12.27-5.314-2.785-2.951-4.2-6.663-3.987-10.452.16-2.836.906-8.349 1.756-10.88 1.722-5.127 7.253-14.823 15.861-14.823 8.61 0 14.14 9.696 15.862 14.822.85 2.53 1.596 8.043 1.756 10.881.213 3.789-1.203 7.5-3.988 10.452z" fill="#080029"/><path d="M61.961 35.683c-2.19 0-4.265.738-5.946 2.097a9.404 9.404 0 00-5.947-2.097c-5.234 0-9.493 4.266-9.493 9.508a9.453 9.453 0 004.84 8.284 5.363 5.363 0 00-.468 2.166c0 4.181 4.861 7.456 11.068 7.456s11.068-3.275 11.068-7.456c0-.734-.16-1.467-.468-2.166a9.453 9.453 0 004.839-8.284c0-5.242-4.258-9.508-9.493-9.508zm2.686 16.27l-1.328.53.84 1.159c.466.642.702 1.315.702 2 0 2.834-4.051 5.23-8.846 5.23-4.794 0-8.846-2.395-8.846-5.23 0-.685.237-1.358.703-2l.84-1.159-1.328-.53a7.245 7.245 0 01-4.585-6.762c0-4.015 3.261-7.282 7.27-7.282 1.95 0 3.783.764 5.159 2.152l.788.796.789-.796a7.214 7.214 0 015.157-2.152c4.01 0 7.271 3.267 7.271 7.282a7.248 7.248 0 01-4.586 6.763z" fill="#080029"/><path d="M49.348 46.29c1.1 0 1.99-.893 1.99-1.995a1.992 1.992 0 00-1.99-1.994c-1.1 0-1.99.893-1.99 1.994a1.99 1.99 0 001.99 1.994zm13.334 0c1.1 0 1.99-.893 1.99-1.995a1.992 1.992 0 00-1.99-1.994c-1.1 0-1.99.893-1.99 1.994a1.99 1.99 0 001.99 1.994zm-7.496 3.998h-2.222v3h2.222v-3zm3.881 0h-2.223v3h2.223v-3z" fill="#080029"/><defs><filter id="atfilter0_d" x="0" y="0" width="113" height="133" filterUnits="userSpaceOnUse" color-interpolation-filters="sRGB"><feFlood flood-opacity="0" result="BackgroundImageFix"/><feColorMatrix in="SourceAlpha" values="0 0 0 0 0 0 0 0 0 0 0 0 0 0 0 0 0 0 127 0"/><feOffset dx="1" dy="12"/><feGaussianBlur stdDeviation="11"/><feColorMatrix values="0 0 0 0 0 0 0 0 0 0 0 0 0 0 0 0 0 0 0.09 0"/><feBlend in2="BackgroundImageFix" result="effect1_dropShadow"/><feBlend in="SourceGraphic" in2="effect1_dropShadow" result="shape"/></filter></defs></svg><svg fill="none" viewBox="0 0 24 24" id="instagram-icon" xmlns="http://www.w3.org/2000/svg"><path d="M15.52 12a3.52 3.52 0 11-7.04 0 3.52 3.52 0 017.04 0zM23 7.16v9.68A6.167 6.167 0 0116.84 23H7.16A6.167 6.167 0 011 16.84V7.16A6.167 6.167 0 017.16 1h9.68A6.167 6.167 0 0123 7.16zM17.28 12A5.28 5.28 0 1012 17.28 5.286 5.286 0 0017.28 12zm1.76-5.72a1.32 1.32 0 10-2.64 0 1.32 1.32 0 002.64 0z" fill="#080029"/></svg><svg fill="none" viewBox="0 0 53 40" id="logo" xmlns="http://www.w3.org/2000/svg"><path d="M23.135 35.565c1.273.637 4.584 1.529 7.64 0" stroke="#000" stroke-width="2.146" stroke-linecap="round"/><path d="M10.608 5.81C9.296 8.692 6.813 9.643 4.869 9.123c-1.944-.521-3.466-3.157-2.945-5.1.52-1.944 3.157-3.466 5.1-2.945 1.945.52 4.104 2.788 3.584 4.732zm32.346.05c1.312 2.883 3.796 3.835 5.74 3.314 1.946-.521 3.468-3.158 2.947-5.103-.521-1.945-3.158-3.468-5.103-2.947-1.945.522-4.106 2.79-3.584 4.735z" fill="#0B0B0B"/><path d="M15.171 32.908c-2.747 0-4.91-.673-6.489-2.017-1.578-1.345-2.416-3.323-2.514-5.934-.02-.565-.03-1.403-.03-2.514 0-1.13.01-1.978.03-2.543.098-2.572.945-4.55 2.543-5.934 1.618-1.403 3.771-2.104 6.46-2.104 2.69 0 4.843.701 6.46 2.104 1.618 1.384 2.465 3.362 2.543 5.934a80.68 80.68 0 01.059 2.543c0 .546-.02 1.384-.059 2.514-.097 2.611-.935 4.59-2.514 5.934-1.578 1.344-3.741 2.017-6.489 2.017zm0-4.21c1.072 0 1.92-.321 2.543-.964.643-.643.984-1.627 1.023-2.953.04-1.13.059-1.929.059-2.396 0-.507-.02-1.306-.059-2.397-.039-1.325-.38-2.31-1.023-2.953-.643-.643-1.49-.964-2.543-.964-1.052 0-1.9.321-2.543.964-.623.643-.964 1.628-1.023 2.953a70.85 70.85 0 00-.03 2.397c0 1.032.01 1.831.03 2.396.059 1.326.4 2.31 1.023 2.953.624.643 1.472.964 2.543.964zm23.733 4.21c-2.748 0-4.91-.673-6.49-2.017-1.578-1.345-2.416-3.323-2.513-5.934-.02-.565-.03-1.403-.03-2.514 0-1.13.01-1.978.03-2.543.098-2.572.945-4.55 2.543-5.934 1.618-1.403 3.77-2.104 6.46-2.104s4.843.701 6.46 2.104c1.618 1.384 2.465 3.362 2.543 5.934a80.68 80.68 0 01.059 2.543c0 .546-.02 1.384-.059 2.514-.097 2.611-.935 4.59-2.514 5.934-1.578 1.344-3.741 2.017-6.489 2.017zm0-4.21c1.072 0 1.92-.321 2.543-.964.643-.643.984-1.627 1.023-2.953.04-1.13.059-1.929.059-2.396 0-.507-.02-1.306-.059-2.397-.039-1.325-.38-2.31-1.023-2.953-.643-.643-1.49-.964-2.543-.964-1.052 0-1.9.321-2.543.964-.623.643-.965 1.628-1.023 2.953a70.85 70.85 0 00-.03 2.397c0 1.032.01 1.831.03 2.396.058 1.326.4 2.31 1.023 2.953.624.643 1.471.964 2.543.964z" fill="#000"/></svg><svg fill="none" viewBox="0 0 55 55" id="panda-link" xmlns="http://www.w3.org/2000/svg"><g clip-path="url(#awclip0)" fill="#0F0049"><path d="M43.088 17.204a4.514 4.514 0 00-3.19-1.31c-1.226 0-2.374.48-3.234 1.353l-.972.986c-2.493-1.64-5.271-2.503-8.078-2.503-2.807 0-5.585.863-8.077 2.503l-.973-.986a4.509 4.509 0 00-3.233-1.353 4.513 4.513 0 00-3.19 1.31 4.554 4.554 0 00-.044 6.429l1.435 1.455c-.897 1.874-1.368 3.81-1.368 5.637 0 6.47 5.92 10.488 15.45 10.488s15.45-4.019 15.45-10.488c0-1.826-.471-3.763-1.368-5.637l1.435-1.455a4.555 4.555 0 00-.043-6.43zm-1.16 5.242l-1.86 1.887a.845.845 0 00-.145.988c.95 1.802 1.453 3.67 1.453 5.403 0 6.488-7.11 8.8-13.762 8.8-6.653 0-13.763-2.312-13.763-8.8 0-1.733.503-3.602 1.454-5.403a.846.846 0 00-.146-.988l-1.86-1.887a2.862 2.862 0 01.027-4.04 2.837 2.837 0 012.004-.823c.77 0 1.492.302 2.032.85l1.47 1.491a.844.844 0 001.094.092c2.353-1.699 5.011-2.596 7.688-2.596 2.676 0 5.335.897 7.688 2.596a.844.844 0 001.094-.092l1.47-1.49a2.833 2.833 0 012.032-.85 2.84 2.84 0 012.005.822 2.862 2.862 0 01.026 4.04z"/><path d="M16.9 26.795c-1.621 1.622-1.933 3.94-.697 5.176 1.236 1.238 3.552.926 5.173-.697 1.62-1.621 1.932-3.939.697-5.176-1.237-1.237-3.553-.925-5.173.697zm1.992 3.823a1.513 1.513 0 110-3.025 1.513 1.513 0 010 3.026zm14.263-4.52c-1.236 1.237-.924 3.555.697 5.177 1.62 1.622 3.937 1.934 5.173.696 1.236-1.236.924-3.554-.697-5.176-1.62-1.622-3.937-1.934-5.173-.697zm3.181 4.52a1.513 1.513 0 11.001-3.025 1.513 1.513 0 010 3.026zm-7.14 1.874a.844.844 0 00-.175-1.67h-2.814a.844.844 0 00-.175 1.67l-1.369 1.37a.845.845 0 001.194 1.195l1.757-1.759 1.757 1.759a.841.841 0 001.194 0 .845.845 0 000-1.194l-1.37-1.37z"/></g><rect x="1" y="1" width="53" height="53" rx="26.5" stroke="#609FFF" stroke-width="2"/><defs><clipPath id="awclip0"><path fill="#fff" transform="translate(10.614 15.439)" d="M0 0h33.772v26.053H0z"/></clipPath></defs></svg><svg fill="none" viewBox="0 0 113 133" id="panda_marker" xmlns="http://www.w3.org/2000/svg"><g filter="url(#axfilter0_d)"><path d="M90 44.611C90 63.726 55.5 99 55.5 99S21 63.726 21 44.611C21 25.496 36.446 10 55.5 10 74.554 10 90 25.496 90 44.611z" fill="#FCFCFC"/></g><path d="M76.025 29.376c-1.107-1.137-2.573-1.763-4.129-1.763-1.585 0-3.07.647-4.184 1.822l-1.259 1.327c-3.226-2.208-6.82-3.37-10.453-3.37-3.633 0-7.227 1.162-10.453 3.37l-1.259-1.328c-1.113-1.174-2.6-1.82-4.184-1.82a5.725 5.725 0 00-4.129 1.763c-2.307 2.37-2.331 6.252-.055 8.654l1.857 1.96c-1.161 2.521-1.771 5.129-1.771 7.586 0 8.71 7.661 14.12 19.995 14.12 12.333 0 19.994-5.41 19.994-14.12 0-2.457-.61-5.064-1.772-7.587l1.858-1.96c2.276-2.401 2.25-6.283-.056-8.654zm-1.5 7.057l-2.408 2.54c-.335.354-.41.892-.188 1.33 1.23 2.426 1.88 4.941 1.88 7.274 0 8.733-9.2 11.845-17.81 11.845S38.19 56.31 38.19 47.577c0-2.333.65-4.849 1.881-7.274a1.173 1.173 0 00-.188-1.33l-2.408-2.54c-1.43-1.51-1.414-3.949.035-5.438a3.6 3.6 0 012.594-1.108 3.6 3.6 0 012.63 1.145l1.902 2.006c.378.4.98.451 1.416.124 3.045-2.287 6.485-3.495 9.95-3.495 3.463 0 6.903 1.208 9.948 3.495a1.061 1.061 0 001.416-.124l1.902-2.006a3.597 3.597 0 012.63-1.145 3.6 3.6 0 012.594 1.108c1.45 1.49 1.464 3.929.034 5.438z" fill="#080029"/><path d="M42.135 42.287c-2.098 2.184-2.501 5.304-.901 6.969 1.6 1.666 4.596 1.245 6.694-.938 2.097-2.184 2.5-5.304.9-6.97-1.6-1.664-4.596-1.244-6.693.939zm2.578 5.147c-1.081 0-1.958-.912-1.958-2.037s.877-2.037 1.958-2.037c1.08 0 1.957.912 1.957 2.037s-.876 2.037-1.957 2.037zm18.458-6.085c-1.6 1.665-1.196 4.785.901 6.969 2.097 2.183 5.095 2.603 6.694.938 1.6-1.665 1.197-4.785-.9-6.969-2.098-2.183-5.096-2.603-6.695-.938zm4.116 6.085c-1.08 0-1.957-.911-1.957-2.037 0-1.125.876-2.037 1.957-2.037s1.957.912 1.957 2.037c0 1.126-.876 2.037-1.957 2.037zm-9.24 2.523c.495-.109.866-.565.866-1.112 0-.628-.489-1.137-1.092-1.137H54.18c-.604 0-1.093.509-1.093 1.137 0 .547.372 1.003.866 1.112l-1.772 1.845a1.17 1.17 0 000 1.608 1.065 1.065 0 001.545-.001L56 51.043l2.274 2.367a1.064 1.064 0 001.545 0 1.17 1.17 0 000-1.607l-1.772-1.845z" fill="#080029"/><defs><filter id="axfilter0_d" x="0" y="0" width="113" height="133" filterUnits="userSpaceOnUse" color-interpolation-filters="sRGB"><feFlood flood-opacity="0" result="BackgroundImageFix"/><feColorMatrix in="SourceAlpha" values="0 0 0 0 0 0 0 0 0 0 0 0 0 0 0 0 0 0 127 0"/><feOffset dx="1" dy="12"/><feGaussianBlur stdDeviation="11"/><feColorMatrix values="0 0 0 0 0 0 0 0 0 0 0 0 0 0 0 0 0 0 0.09 0"/><feBlend in2="BackgroundImageFix" result="effect1_dropShadow"/><feBlend in="SourceGraphic" in2="effect1_dropShadow" result="shape"/></filter></defs></svg><svg fill="none" viewBox="0 0 52 52" id="profile" xmlns="http://www.w3.org/2000/svg"><circle cx="26" cy="26" r="26" fill="#0F0049"/><circle cx="26" cy="17" r="7" stroke="#FCFCFC" stroke-width="2"/><path fill-rule="evenodd" clip-rule="evenodd" d="M37.956 42c-.537 0-.956-.462-.956-1 0-6.075-4.925-11-11-11s-11 4.925-11 11c0 .538-.419 1-.957 1h-.085c-.519 0-.955-.4-.958-.92V41c0-7.18 5.82-13 13-13s13 5.82 13 13v.08c-.003.52-.439.92-.958.92h-.086z" fill="#FCFCFC"/></svg><svg fill="none" viewBox="0 0 128 47" id="rs_school" xmlns="http://www.w3.org/2000/svg"><g clip-path="url(#azclip0)"><path d="M66.084 15.566l6.09-.389c.139.985.393 1.717.81 2.244.672.824 1.598 1.236 2.825 1.236.903 0 1.62-.206 2.107-.641.463-.343.741-.893.741-1.465 0-.55-.254-1.076-.694-1.42-.464-.412-1.552-.824-3.265-1.19-2.802-.618-4.816-1.442-5.997-2.496-1.181-.984-1.853-2.426-1.806-3.96 0-1.053.324-2.106.926-2.976.694-.985 1.644-1.763 2.778-2.198 1.227-.527 2.94-.801 5.094-.801 2.64 0 4.654.48 6.044 1.465 1.389.961 2.223 2.518 2.477 4.647l-6.02.344c-.162-.916-.486-1.58-1.019-2.015-.532-.435-1.227-.64-2.13-.64-.741 0-1.297.16-1.667.457-.347.275-.579.687-.556 1.145 0 .343.185.663.463.87.301.274 1.019.526 2.154.755 2.801.595 4.793 1.19 6.02 1.809 1.227.618 2.107 1.373 2.64 2.266a5.63 5.63 0 01.81 3.045c0 1.282-.37 2.564-1.112 3.64a7.007 7.007 0 01-3.08 2.518c-1.319.573-2.986.87-4.977.87-3.52 0-5.951-.664-7.317-2.014-1.366-1.351-2.177-3.045-2.339-5.106zM1.46 22.343V1.876h10.674c1.968 0 3.497.16 4.539.504a4.791 4.791 0 012.523 1.877 5.64 5.64 0 01.973 3.32 5.461 5.461 0 01-2.755 4.944 7.116 7.116 0 01-2.247.802c.58.16 1.158.435 1.668.755.393.32.718.687 1.018 1.076.348.39.649.824.904 1.282l3.102 5.93h-7.27L11.16 16.07c-.44-.801-.81-1.328-1.158-1.58a2.77 2.77 0 00-1.575-.48h-.555v8.31H1.459v.023zm6.414-12.18h2.709a10.393 10.393 0 001.69-.274 1.624 1.624 0 001.042-.641 2.02 2.02 0 00-.231-2.702c-.417-.343-1.228-.526-2.385-.526H7.873v4.143zM0 39.88l6.09-.39c.139.985.393 1.718.81 2.244.649.825 1.598 1.26 2.825 1.26.903 0 1.621-.207 2.107-.642.463-.366.741-.892.741-1.465 0-.55-.255-1.076-.694-1.42-.463-.411-1.552-.823-3.288-1.19-2.802-.618-4.817-1.442-5.998-2.495-1.18-.984-1.852-2.427-1.806-3.96 0-1.054.325-2.107.927-2.977.694-.984 1.644-1.762 2.778-2.197 1.227-.527 2.94-.802 5.094-.802 2.64 0 4.654.481 6.044 1.466 1.389.984 2.2 2.518 2.454 4.647l-6.02.343c-.162-.915-.486-1.58-1.019-2.014-.51-.435-1.227-.641-2.13-.618-.741 0-1.297.16-1.667.48-.37.275-.58.687-.556 1.145 0 .343.185.664.463.87.301.275 1.019.526 2.153.755 2.802.596 4.793 1.19 6.02 1.809 1.228.618 2.108 1.374 2.64 2.266.556.916.834 1.97.834 3.022a6.533 6.533 0 01-1.112 3.617 7.008 7.008 0 01-3.08 2.519c-1.319.572-2.986.87-4.977.87-3.52 0-5.951-.664-7.317-2.015C.949 43.634.186 41.94 0 39.88z" fill="#fff"/><path d="M30.796 38.277L36.4 39.95c-.301 1.396-.927 2.724-1.783 3.891a7.745 7.745 0 01-3.01 2.358c-1.205.527-2.733.802-4.585.802-2.246 0-4.099-.32-5.511-.962-1.436-.64-2.663-1.786-3.705-3.411-1.042-1.625-1.551-3.709-1.551-6.25 0-3.388.903-5.998 2.732-7.807 1.83-1.808 4.4-2.724 7.734-2.724 2.616 0 4.654.527 6.159 1.557 1.482 1.053 2.593 2.656 3.334 4.808l-5.65 1.236a4.934 4.934 0 00-.625-1.374 3.663 3.663 0 00-1.32-1.122c-.532-.274-1.134-.389-1.736-.389-1.459 0-2.57.573-3.334 1.74-.58.847-.88 2.198-.88 4.03 0 2.266.347 3.822 1.042 4.67.694.847 1.667 1.259 2.94 1.259 1.227 0 2.154-.344 2.779-1.008.625-.71 1.088-1.694 1.366-2.976zM43.879 26.19h6.39v7.165h6.993V26.19h6.437v20.466h-6.437V38.37h-6.993v8.287h-6.39V26.19z" fill="#fff"/><path d="M62.82 36.422c0-3.342.948-5.952 2.824-7.806 1.875-1.855 4.515-2.793 7.873-2.793 3.45 0 6.09.915 7.965 2.747 1.876 1.831 2.802 4.395 2.802 7.692 0 2.404-.417 4.35-1.228 5.884a8.622 8.622 0 01-3.52 3.571c-1.55.847-3.472 1.282-5.765 1.282-2.338 0-4.26-.366-5.788-1.099a8.784 8.784 0 01-3.728-3.48c-.95-1.602-1.436-3.594-1.436-5.998zm6.39.023c0 2.06.394 3.549 1.158 4.465.764.892 1.829 1.35 3.172 1.35 1.366 0 2.431-.435 3.195-1.328.764-.893 1.135-2.472 1.135-4.762 0-1.922-.394-3.342-1.181-4.212-.787-.893-1.852-1.328-3.195-1.328a3.941 3.941 0 00-3.103 1.351c-.788.893-1.181 2.381-1.181 4.464zm21.627-.023c0-3.342.949-5.952 2.824-7.806 1.876-1.855 4.516-2.793 7.873-2.793 3.45 0 6.113.915 7.965 2.747 1.853 1.831 2.802 4.395 2.802 7.692 0 2.404-.417 4.35-1.227 5.884a8.623 8.623 0 01-3.52 3.571c-1.551.847-3.473 1.282-5.765 1.282-2.339 0-4.26-.366-5.789-1.099a8.784 8.784 0 01-3.728-3.48c-.95-1.602-1.436-3.594-1.436-5.998zm6.39.023c0 2.06.394 3.549 1.158 4.465.764.892 1.829 1.35 3.172 1.35 1.366 0 2.431-.435 3.196-1.328.764-.893 1.134-2.472 1.134-4.762 0-1.922-.394-3.342-1.181-4.212-.787-.893-1.852-1.328-3.195-1.328a3.91 3.91 0 00-3.103 1.351c-.787.893-1.18 2.381-1.18 4.464z" fill="#fff"/><path d="M111.63 26.19h6.39v15.43H128v5.036h-16.393V26.19h.023z" fill="#fff"/><path d="M104.555 25.011c6.428-4.8 8.413-12.936 4.432-18.171-3.981-5.235-12.42-5.587-18.848-.786-6.429 4.801-8.413 12.937-4.432 18.172 3.98 5.235 12.419 5.586 18.848.785z" stroke="#fff" stroke-width="1.174" stroke-miterlimit="10"/><path d="M104.555 25.011c6.428-4.8 8.413-12.936 4.432-18.171-3.981-5.235-12.42-5.587-18.848-.786-6.429 4.801-8.413 12.937-4.432 18.172 3.98 5.235 12.419 5.586 18.848.785z" stroke="#fff" stroke-width="1.174" stroke-miterlimit="10"/><path d="M90.86 14.033l2.316-1.603 2.848 4.006a7.932 7.932 0 011.134 2.084c.162.572.116 1.19-.116 1.74a3.74 3.74 0 01-1.435 1.67c-.764.527-1.413.825-1.968.916-.533.092-1.089 0-1.598-.229a3.858 3.858 0 01-1.412-1.167l1.99-1.832c.163.252.371.481.603.664a.949.949 0 00.556.183.736.736 0 00.44-.16.755.755 0 00.37-.687 2.289 2.289 0 00-.486-1.076l-3.242-4.51zm6.947 2.54l2.107-1.648a2 2 0 00.856.595c.463.138.95.046 1.343-.251.278-.184.51-.435.602-.756a.8.8 0 00-.509-1.007.68.68 0 00-.208-.046c-.278-.023-.765.092-1.482.39-1.181.48-2.107.663-2.802.595-.672-.07-1.297-.412-1.667-.985a2.45 2.45 0 01-.44-1.305c0-.526.139-1.053.44-1.488a5.802 5.802 0 011.62-1.557c.973-.664 1.83-.984 2.571-.984.741 0 1.435.343 2.084 1.053l-2.084 1.626c-.417-.527-1.204-.641-1.737-.23l-.07.07a1.128 1.128 0 00-.486.595.59.59 0 00.093.549.517.517 0 00.394.206c.185.023.51-.069.972-.275 1.158-.48 2.038-.755 2.64-.847a2.693 2.693 0 011.528.16c.44.184.811.504 1.065.893.324.458.51 1.008.533 1.58a2.86 2.86 0 01-.463 1.671 5.64 5.64 0 01-1.575 1.557c-1.273.87-2.315 1.236-3.149 1.099a3.405 3.405 0 01-2.176-1.26z" fill="#fff"/></g><defs><clipPath id="azclip0"><path fill="#fff" d="M0 0h128v47H0z"/></clipPath></defs></svg><svg fill="none" viewBox="0 0 128 47" id="rs_school_js_(1)" xmlns="http://www.w3.org/2000/svg"><g clip-path="url(#baclip0)"><path d="M66.084 15.566l6.09-.389c.139.985.393 1.717.81 2.244.672.824 1.598 1.236 2.825 1.236.903 0 1.62-.206 2.107-.641.463-.343.741-.893.741-1.465 0-.55-.254-1.076-.694-1.42-.464-.412-1.552-.824-3.265-1.19-2.802-.618-4.816-1.442-5.997-2.496-1.181-.984-1.853-2.426-1.806-3.96 0-1.053.324-2.106.926-2.976.694-.985 1.644-1.763 2.778-2.198 1.227-.527 2.94-.801 5.094-.801 2.64 0 4.654.48 6.044 1.465 1.389.961 2.223 2.518 2.477 4.647l-6.02.344c-.162-.916-.486-1.58-1.019-2.015-.532-.435-1.227-.64-2.13-.64-.741 0-1.297.16-1.667.457-.347.275-.579.687-.556 1.145 0 .343.185.663.463.87.301.274 1.019.526 2.154.755 2.801.595 4.793 1.19 6.02 1.809 1.227.618 2.107 1.373 2.64 2.266a5.63 5.63 0 01.81 3.045c0 1.282-.37 2.564-1.112 3.64a7.007 7.007 0 01-3.08 2.518c-1.319.573-2.986.87-4.977.87-3.52 0-5.951-.664-7.317-2.014-1.366-1.351-2.177-3.045-2.339-5.106zM1.46 22.343V1.876h10.674c1.968 0 3.497.16 4.539.504a4.791 4.791 0 012.523 1.877 5.64 5.64 0 01.973 3.32 5.461 5.461 0 01-2.755 4.944 7.116 7.116 0 01-2.247.802c.58.16 1.158.435 1.668.755.393.32.718.687 1.018 1.076.348.39.649.824.904 1.282l3.102 5.93h-7.27L11.16 16.07c-.44-.801-.81-1.328-1.158-1.58a2.77 2.77 0 00-1.575-.48h-.555v8.31H1.459v.023zm6.414-12.18h2.709a10.393 10.393 0 001.69-.274 1.624 1.624 0 001.042-.641 2.02 2.02 0 00-.231-2.702c-.417-.343-1.228-.526-2.385-.526H7.873v4.143zM0 39.88l6.09-.39c.139.985.393 1.718.81 2.244.649.825 1.598 1.26 2.825 1.26.903 0 1.621-.207 2.107-.642.463-.366.741-.892.741-1.465 0-.55-.255-1.076-.694-1.42-.463-.411-1.552-.823-3.288-1.19-2.802-.618-4.817-1.442-5.998-2.495-1.18-.984-1.852-2.427-1.806-3.96 0-1.054.325-2.107.927-2.977.694-.984 1.644-1.762 2.778-2.197 1.227-.527 2.94-.802 5.094-.802 2.64 0 4.654.481 6.044 1.466 1.389.984 2.2 2.518 2.454 4.647l-6.02.343c-.162-.915-.486-1.58-1.019-2.014-.51-.435-1.227-.641-2.13-.618-.741 0-1.297.16-1.667.48-.37.275-.58.687-.556 1.145 0 .343.185.664.463.87.301.275 1.019.526 2.153.755 2.802.596 4.793 1.19 6.02 1.809 1.228.618 2.108 1.374 2.64 2.266.556.916.834 1.97.834 3.022a6.533 6.533 0 01-1.112 3.617 7.008 7.008 0 01-3.08 2.519c-1.319.572-2.986.87-4.977.87-3.52 0-5.951-.664-7.317-2.015C.949 43.634.186 41.94 0 39.88z" fill="#fff"/><path d="M30.796 38.277L36.4 39.95c-.301 1.396-.927 2.724-1.783 3.891a7.745 7.745 0 01-3.01 2.358c-1.205.527-2.733.802-4.585.802-2.246 0-4.099-.32-5.511-.962-1.436-.64-2.663-1.786-3.705-3.411-1.042-1.625-1.551-3.709-1.551-6.25 0-3.388.903-5.998 2.732-7.807 1.83-1.808 4.4-2.724 7.734-2.724 2.616 0 4.654.527 6.159 1.557 1.482 1.053 2.593 2.656 3.334 4.808l-5.65 1.236a4.934 4.934 0 00-.625-1.374 3.663 3.663 0 00-1.32-1.122c-.532-.274-1.134-.389-1.736-.389-1.459 0-2.57.573-3.334 1.74-.58.847-.88 2.198-.88 4.03 0 2.266.347 3.822 1.042 4.67.694.847 1.667 1.259 2.94 1.259 1.227 0 2.154-.344 2.779-1.008.625-.71 1.088-1.694 1.366-2.976zM43.879 26.19h6.39v7.165h6.993V26.19h6.437v20.466h-6.437V38.37h-6.993v8.287h-6.39V26.19z" fill="#fff"/><path d="M62.82 36.422c0-3.342.948-5.952 2.824-7.806 1.875-1.855 4.515-2.793 7.873-2.793 3.45 0 6.09.915 7.965 2.747 1.876 1.831 2.802 4.395 2.802 7.692 0 2.404-.417 4.35-1.228 5.884a8.622 8.622 0 01-3.52 3.571c-1.55.847-3.472 1.282-5.765 1.282-2.338 0-4.26-.366-5.788-1.099a8.784 8.784 0 01-3.728-3.48c-.95-1.602-1.436-3.594-1.436-5.998zm6.39.023c0 2.06.394 3.549 1.158 4.465.764.892 1.829 1.35 3.172 1.35 1.366 0 2.431-.435 3.195-1.328.764-.893 1.135-2.472 1.135-4.762 0-1.922-.394-3.342-1.181-4.212-.787-.893-1.852-1.328-3.195-1.328a3.941 3.941 0 00-3.103 1.351c-.788.893-1.181 2.381-1.181 4.464zm21.627-.023c0-3.342.949-5.952 2.824-7.806 1.876-1.855 4.516-2.793 7.873-2.793 3.45 0 6.113.915 7.965 2.747 1.853 1.831 2.802 4.395 2.802 7.692 0 2.404-.417 4.35-1.227 5.884a8.623 8.623 0 01-3.52 3.571c-1.551.847-3.473 1.282-5.765 1.282-2.339 0-4.26-.366-5.789-1.099a8.784 8.784 0 01-3.728-3.48c-.95-1.602-1.436-3.594-1.436-5.998zm6.39.023c0 2.06.394 3.549 1.158 4.465.764.892 1.829 1.35 3.172 1.35 1.366 0 2.431-.435 3.196-1.328.764-.893 1.134-2.472 1.134-4.762 0-1.922-.394-3.342-1.181-4.212-.787-.893-1.852-1.328-3.195-1.328a3.91 3.91 0 00-3.103 1.351c-.787.893-1.18 2.381-1.18 4.464z" fill="#fff"/><path d="M111.63 26.19h6.39v15.43H128v5.036h-16.393V26.19h.023z" fill="#fff"/><path d="M104.555 25.011c6.428-4.8 8.413-12.936 4.432-18.171-3.981-5.235-12.42-5.587-18.848-.786-6.429 4.801-8.413 12.937-4.432 18.172 3.98 5.235 12.419 5.586 18.848.785z" stroke="#fff" stroke-width="1.174" stroke-miterlimit="10"/><path d="M104.555 25.011c6.428-4.8 8.413-12.936 4.432-18.171-3.981-5.235-12.42-5.587-18.848-.786-6.429 4.801-8.413 12.937-4.432 18.172 3.98 5.235 12.419 5.586 18.848.785z" stroke="#fff" stroke-width="1.174" stroke-miterlimit="10"/><path d="M90.86 14.033l2.316-1.603 2.848 4.006a7.932 7.932 0 011.134 2.084c.162.572.116 1.19-.116 1.74a3.74 3.74 0 01-1.435 1.67c-.764.527-1.413.825-1.968.916-.533.092-1.089 0-1.598-.229a3.858 3.858 0 01-1.412-1.167l1.99-1.832c.163.252.371.481.603.664a.949.949 0 00.556.183.736.736 0 00.44-.16.755.755 0 00.37-.687 2.289 2.289 0 00-.486-1.076l-3.242-4.51zm6.947 2.54l2.107-1.648a2 2 0 00.856.595c.463.138.95.046 1.343-.251.278-.184.51-.435.602-.756a.8.8 0 00-.509-1.007.68.68 0 00-.208-.046c-.278-.023-.765.092-1.482.39-1.181.48-2.107.663-2.802.595-.672-.07-1.297-.412-1.667-.985a2.45 2.45 0 01-.44-1.305c0-.526.139-1.053.44-1.488a5.802 5.802 0 011.62-1.557c.973-.664 1.83-.984 2.571-.984.741 0 1.435.343 2.084 1.053l-2.084 1.626c-.417-.527-1.204-.641-1.737-.23l-.07.07a1.128 1.128 0 00-.486.595.59.59 0 00.093.549.517.517 0 00.394.206c.185.023.51-.069.972-.275 1.158-.48 2.038-.755 2.64-.847a2.693 2.693 0 011.528.16c.44.184.811.504 1.065.893.324.458.51 1.008.533 1.58a2.86 2.86 0 01-.463 1.671 5.64 5.64 0 01-1.575 1.557c-1.273.87-2.315 1.236-3.149 1.099a3.405 3.405 0 01-2.176-1.26z" fill="#fff"/></g><defs><clipPath id="baclip0"><path fill="#fff" d="M0 0h128v47H0z"/></clipPath></defs></svg><svg fill="none" viewBox="0 0 24 20" id="twitter-icon" xmlns="http://www.w3.org/2000/svg"><path d="M.033 17.753c2.641.242 5.02-.435 7.186-2.09-2.265-.203-3.78-1.354-4.626-3.511.741.091 1.435.116 2.17-.087-2.44-.774-3.742-2.4-3.918-5.022.732.348 1.42.6 2.233.61C1.629 6.545.888 5.108.917 3.299A4.755 4.755 0 011.582.943C4.265 4.14 7.632 5.91 11.779 6.206c-.024-.184-.038-.329-.057-.479C11.38 3.047 13.09.61 15.702.101c1.639-.32 3.088.121 4.313 1.272.19.175.351.213.589.15a11.714 11.714 0 002.74-1.088c-.337 1.132-1.03 1.983-1.97 2.7.213-.04.432-.068.645-.112a11.252 11.252 0 001.302-.363c.213-.072.427-.155.679-.198-.123.174-.242.358-.375.527a11.175 11.175 0 01-1.886 1.892.384.384 0 00-.128.27 14.61 14.61 0 01-.746 5.017c-1.073 3.203-2.945 5.796-5.752 7.648-1.386.915-2.902 1.515-4.521 1.863-1.606.343-3.22.406-4.84.213a13.23 13.23 0 01-4.622-1.447c-.384-.198-.755-.42-1.13-.633a.363.363 0 00.033-.059z" fill="#080029"/></svg><svg fill="none" viewBox="0 0 118 62" id="yem-digital" xmlns="http://www.w3.org/2000/svg"><path d="M85.24 18.393v7.953c0 1.741-.486 3.075-1.457 4-.972.938-2.314 1.406-4.025 1.406-.983 0-1.882-.138-2.7-.413-.816-.265-1.512-.645-2.086-1.141l1.043-1.984c1.05.849 2.275 1.273 3.677 1.273.972 0 1.69-.242 2.153-.727.475-.496.712-1.257.712-2.282v-.71c-.773.947-1.866 1.421-3.279 1.421-1.469 0-2.6-.413-3.395-1.24-.784-.838-1.176-2.04-1.176-3.604v-3.952h2.683v3.786c0 .904.215 1.588.646 2.05.43.463 1.038.695 1.822.695.828 0 1.484-.243 1.97-.728s.73-1.218.73-2.199v-3.604h2.682zm12.126 10.582c-.552.374-1.248.666-2.087.876-.828.21-1.712.314-2.65.314-1.17 0-2.164-.143-2.981-.43-.817-.297-1.435-.705-1.855-1.223a2.822 2.822 0 01-.63-1.803c0-.617.172-1.162.514-1.636s.812-.827 1.408-1.058a2.704 2.704 0 01-1.06-.992 2.75 2.75 0 01-.364-1.406c0-.628.193-1.201.58-1.72.386-.517.97-.93 1.755-1.24.784-.308 1.744-.462 2.881-.462.751 0 1.485.077 2.203.231.718.144 1.342.342 1.872.596l-.746 2.05a7.545 7.545 0 00-3.23-.711c-.86 0-1.512.132-1.953.396-.431.254-.646.601-.646 1.042 0 .408.143.722.43.942.298.21.745.315 1.342.315h3.163v2.116h-3.329c-.673 0-1.192.116-1.557.347-.364.232-.546.568-.546 1.009 0 .463.232.826.695 1.09.475.254 1.198.381 2.17.381.684 0 1.369-.088 2.054-.264.684-.188 1.264-.447 1.738-.777l.829 2.017zm14.805-10.78c1.37 0 2.435.402 3.197 1.207.762.793 1.143 1.945 1.143 3.455v7.11h-2.683V22.94c0-.816-.216-1.428-.646-1.835-.419-.42-.977-.629-1.673-.629-.762 0-1.369.22-1.822.662-.452.43-.679 1.085-.679 1.967v6.862h-2.683V22.94c0-.816-.198-1.428-.596-1.835-.397-.42-.939-.629-1.623-.629-.751 0-1.353.22-1.805.662-.453.43-.679 1.085-.679 1.967v6.862h-2.683V18.393h2.6v1.422a3.44 3.44 0 011.408-1.19c.585-.287 1.258-.43 2.02-.43.795 0 1.491.149 2.087.446a3.103 3.103 0 011.375 1.257c.397-.551.916-.97 1.556-1.257.651-.297 1.38-.446 2.186-.446zM74.545 34.72h3.95c.944 0 1.777.182 2.497.546a3.96 3.96 0 011.69 1.512c.405.653.608 1.414.608 2.282 0 .868-.203 1.628-.609 2.282-.397.653-.96 1.161-1.689 1.525-.72.355-1.553.533-2.497.533h-3.95v-8.68zm3.851 7.03c.87 0 1.561-.239 2.074-.718.522-.488.783-1.145.783-1.972s-.26-1.48-.783-1.96c-.513-.487-1.204-.73-2.074-.73h-1.838v5.38h1.838zm6.275-5.021h1.937v6.67h-1.937v-6.67zm.969-.93c-.356 0-.646-.104-.87-.31a1.004 1.004 0 01-.335-.77c0-.305.111-.561.335-.768.224-.207.514-.31.87-.31s.645.1.87.298a.953.953 0 01.334.744c0 .322-.111.59-.335.806-.224.206-.513.31-.87.31zm9.66.93v5.555c0 1.223-.318 2.133-.956 2.728-.637.595-1.57.893-2.795.893a7 7 0 01-1.838-.236c-.58-.157-1.06-.384-1.44-.682l.77-1.389c.28.232.637.414 1.068.546.43.14.86.21 1.291.21.671 0 1.164-.152 1.478-.458.323-.298.485-.752.485-1.364v-.285c-.505.554-1.21.83-2.112.83a3.633 3.633 0 01-1.689-.396 3.131 3.131 0 01-1.205-1.141c-.298-.488-.447-1.05-.447-1.687 0-.636.149-1.198.447-1.686a3.04 3.04 0 011.205-1.128 3.544 3.544 0 011.69-.41c.968 0 1.705.319 2.21.955v-.855H95.3zm-3.664 4.761c.514 0 .932-.148 1.255-.446.331-.306.497-.703.497-1.19 0-.488-.166-.88-.497-1.178-.323-.306-.741-.46-1.255-.46-.513 0-.935.154-1.267.46-.33.297-.496.69-.496 1.177 0 .488.165.885.496 1.19.332.299.754.447 1.267.447zm5.468-4.761h1.938v6.67h-1.938v-6.67zm.969-.93c-.356 0-.646-.104-.87-.31a1.005 1.005 0 01-.335-.77c0-.305.112-.561.335-.768.224-.207.514-.31.87-.31s.646.1.87.298a.953.953 0 01.335.744c0 .322-.112.59-.336.806-.223.206-.513.31-.87.31zm6.792 7.279c-.191.14-.427.247-.708.322a3.64 3.64 0 01-.858.1c-.803 0-1.42-.203-1.85-.608-.431-.406-.646-1-.646-1.786v-5.853h1.937v1.624h1.653v1.488h-1.653v2.716c0 .281.071.5.212.657.14.15.343.224.609.224.298 0 .563-.083.795-.248l.509 1.364zm7.67-6.35V43.4h-1.851v-.769c-.48.579-1.176.868-2.087.868-.629 0-1.2-.14-1.714-.422a3.034 3.034 0 01-1.192-1.202c-.29-.521-.435-1.125-.435-1.81 0-.687.145-1.29.435-1.811.29-.52.687-.922 1.192-1.203a3.512 3.512 0 011.714-.422c.853 0 1.52.27 2 .806v-.706h1.938zm-3.602 5.184c.488 0 .894-.165 1.217-.496.323-.339.484-.79.484-1.352s-.161-1.008-.484-1.339a1.611 1.611 0 00-1.217-.508c-.497 0-.907.17-1.23.508-.323.33-.484.777-.484 1.34 0 .561.161 1.012.484 1.35.323.332.733.497 1.23.497zm7.793 1.587c-.754 0-1.342-.198-1.764-.595-.422-.405-.633-.976-.633-1.711v-6.994h1.937v6.882c0 .281.071.5.211.657.15.15.357.224.622.224.099 0 .198-.013.298-.038a.948.948 0 00.248-.087l.087 1.5a3.163 3.163 0 01-1.006.162z" fill="#F2F2F2"/><path d="M18.293 17.135c.042.052.08.094.122.145.254.306.527.64.824.996.145.179.3.362.456.55.786.944 1.675 2.015 2.611 3.133l1.134 1.357 1.148 1.372.07.084c.175.207.344.414.518.616.029.032.057.07.09.103.136.16.268.32.4.479.084.103.169.202.254.305l.07.085c.052.066.109.127.16.192l.198.24c.028.037.061.07.09.108.08.094.16.193.24.286.056.066.107.132.164.198l.198.24c.056.07.117.136.174.206.028.033.056.07.089.103.09.108.179.216.268.32l.085.098c.052.066.108.127.16.188.056.066.108.132.164.197l.08.094c.33.39.636.761.927 1.104.014.014.028.033.043.047.089.103.169.202.254.3l.136.165.061.075c.141.165.268.32.395.47l.429.507.103.127.005.005.357.427.005.005c.047.056.094.108.132.155.01.01.019.014.028.023.052.038.137.043.188 0 .01-.009.02-.014.029-.023.032-.038.07-.085.113-.132a1.55 1.55 0 01.094-.112c.075-.09.16-.188.249-.296.033-.038.061-.07.09-.108.009-.01.013-.02.023-.028l.15-.179c0-.005.005-.005.005-.005l.137-.164c.032-.042.07-.085.108-.132.131-.16.273-.324.423-.507.019-.023.038-.047.061-.07.062-.075.132-.155.198-.235.061-.07.122-.146.184-.22.211-.255.437-.522.672-.804.047-.052.09-.108.137-.16.014-.019.033-.037.047-.056.066-.08.136-.16.202-.244l.216-.259c.043-.051.085-.098.127-.15.02-.024.038-.042.057-.066.099-.122.202-.244.306-.366l.08-.094c.033-.038.066-.075.094-.113.254-.3.513-.61.776-.93.061-.075.127-.15.188-.225l.029-.033c.08-.099.164-.197.249-.296.07-.08.136-.164.207-.244.132-.155.264-.315.395-.475.038-.047.075-.094.118-.14l.508-.607c.023-.023.042-.051.066-.075.38-.455.762-.916 1.148-1.371l1.134-1.358c.931-1.117 1.825-2.188 2.611-3.133.155-.187.31-.37.456-.549.297-.357.57-.69.824-.996.042-.051.075-.094.117-.14a18.859 18.859 0 00-12.722-4.918c-4.912 0-9.377 1.86-12.736 4.908zm18.156 22.964a.57.57 0 00-.875.14l-2.87 4.98-.71 1.225a.736.736 0 01-.636.367h-.678a.738.738 0 01-.64-.371l-.004-.005-3.576-6.205a.572.572 0 00-.875-.14l-2.668 2.376-3.707 3.307a18.82 18.82 0 0011.805 4.138c4.47 0 8.572-1.55 11.809-4.143l-1.426-1.273-4.95-4.396zm-20.184-10.78a2746.374 2746.374 0 01-2.922-4.904 18.742 18.742 0 00-1.218 6.66c0 2.565.513 5.003 1.444 7.23l.72-.88 3.868-4.72c.004-.005.037-.042.08-.098a363.116 363.116 0 01-1.971-3.288z" fill="#fff"/><path d="M31.053 0C13.903 0 0 13.87 0 30.981c0 17.111 13.903 30.981 31.053 30.981s31.052-13.87 31.052-30.98C62.105 13.87 48.202 0 31.053 0zM55.33 47.317H44.603a.167.167 0 01-.047-.01l-.01.01-.004-.004a21.118 21.118 0 01-13.527 4.875 21.095 21.095 0 01-13.522-4.875h-.005l-.01-.01a.12.12 0 01-.046.01H6.705a.247.247 0 01-.193-.404l5.443-6.647a20.991 20.991 0 01-2.108-9.196c0-11.663 9.476-21.118 21.168-21.118 11.692 0 21.167 9.455 21.167 21.118 0 3.292-.757 6.411-2.103 9.192l2.066 2.517 3.378 4.124.01.01c.122.164.009.408-.203.408z" fill="#fff"/><path d="M48.512 24.716c-.86 1.442-1.872 3.147-2.738 4.598l-1.953 3.274-.014.014.07.09c.005.004.005.009.01.013l4.578 5.59a18.743 18.743 0 001.44-7.224c0-2.344-.433-4.584-1.214-6.651l-.179.296z" fill="#fff"/></svg></svg>